<mxfile host="app.diagrams.net" modified="2023-11-23T00:51:44.677Z" agent="Mozilla/5.0 (Macintosh; Intel Mac OS X 10_15_7) AppleWebKit/605.1.15 (KHTML, like Gecko) Version/17.0 Safari/605.1.15" version="22.1.3" etag="3QT7Qwzr2sB9FOEGXe2S" type="github">
  <diagram name="PÃ¡gina-1" id="MdCg0GDHvMsd0DE7V6tG">
    <mxGraphModel>
      <root>
        <mxCell id="0" />
        <mxCell id="1" parent="0" />
      </root>
    </mxGraphModel>
  </diagram>
</mxfile>
